<svg width="74" height="50" viewBox="0 0 74 50" fill="none" xmlns="http://www.w3.org/2000/svg">
<path d="M2.74556 0C1.22828 0 0 1.23907 0 2.76968V7.37609C0 8.90671 1.22828 10.1458 2.74556 10.1458C4.26284 10.1458 5.49112 8.90671 5.49112 7.37609V2.76968C5.49112 1.23907 4.26284 0 2.74556 0Z" transform="translate(68.4944 39.8542)" fill="#FF9623"/>
<path d="M22.4702 5.81633C21.6321 6.09329 20.7506 6.23907 19.8692 6.23907C18.9877 6.23907 18.1062 6.09329 17.2681 5.81633L0 0.0145782V9.47522C0 10.6706 0.751416 11.7201 1.87854 12.0991L19.0021 17.8426C19.2767 17.93 19.5802 17.9883 19.8692 17.9883C20.1582 17.9883 20.4472 17.9446 20.7362 17.8426L37.8598 12.0845C38.9725 11.7055 39.7383 10.656 39.7383 9.46064V0L22.4702 5.81633Z" transform="translate(17.1236 27.8572)" fill="#FF9623"/>
<path d="M72.107 11.6618L37.8598 0.145773C37.5852 0.058309 37.2818 0 36.9928 0C36.7038 0 36.4003 0.0437318 36.1258 0.145773L1.87854 11.6618C0.765866 12.0408 0 13.0904 0 14.2857C0 15.481 0.751416 16.5306 1.87854 16.9096L17.1381 22.0408L36.1258 28.4257C36.4003 28.5131 36.7038 28.5714 36.9928 28.5714C37.2818 28.5714 37.5708 28.5277 37.8598 28.4257L56.8619 22.0408L68.5089 18.1195V30.5977C68.5089 32.1283 69.7372 33.3673 71.2544 33.3673C72.7717 33.3673 74 32.1283 74 30.5977V14.2857C73.9855 13.105 73.2341 12.0408 72.107 11.6618Z" fill="#FF9623"/>
</svg>
