<svg width="74" height="50" fill="none" xmlns="http://www.w3.org/2000/svg"><path d="M71.24 39.854c-1.517 0-2.746 1.24-2.746 2.77v4.606c0 1.53 1.229 2.77 2.746 2.77s2.746-1.24 2.746-2.77v-4.606c0-1.53-1.229-2.77-2.746-2.77zm-31.646-6.18a8.31 8.31 0 0 1-2.601.422 8.31 8.31 0 0 1-2.601-.422l-17.268-5.802v9.46c0 1.196.751 2.245 1.878 2.624L36.126 45.7c.274.087.578.145.867.145.289 0 .578-.043.867-.145l17.123-5.758a2.774 2.774 0 0 0 1.879-2.624v-9.46l-17.268 5.816z" fill="#FF9623"/><path d="M72.107 11.662L37.86.146A2.923 2.923 0 0 0 36.993 0a2.52 2.52 0 0 0-.867.146L1.879 11.662A2.774 2.774 0 0 0 0 14.286c0 1.195.751 2.245 1.879 2.624l15.26 5.13 18.987 6.386c.274.087.578.145.867.145.289 0 .578-.043.867-.145l19.002-6.385 11.647-3.922v12.479c0 1.53 1.228 2.77 2.745 2.77 1.518 0 2.746-1.24 2.746-2.77V14.286a2.802 2.802 0 0 0-1.893-2.624z" fill="#FF9623"/></svg>