<svg width="39" height="50" fill="none" xmlns="http://www.w3.org/2000/svg"><path d="M19.224 19.733c5.44 0 9.867-4.426 9.867-9.866C29.09 4.427 24.664 0 19.224 0c-5.44 0-9.867 4.426-9.867 9.867 0 5.44 4.426 9.866 9.867 9.866zm13.24 4.782l-.017-.006c-1.285-.313-5.219-.864-5.219-.864a.874.874 0 0 0-1.078.537l-5.921 16.247c-.342.937-1.668.937-2.01 0L12.3 24.182a.874.874 0 0 0-.822-.576c-.085 0-4.13.567-5.476.902C2.32 25.423 0 29.042 0 32.813v13.519A3.668 3.668 0 0 0 3.668 50h31.108a3.668 3.668 0 0 0 3.669-3.668V32.768a8.681 8.681 0 0 0-5.981-8.253z" fill="#FF9623"/><path d="M21.457 23.336a1.258 1.258 0 0 0-.931-.387h-2.607c-.35 0-.695.13-.932.387a1.21 1.21 0 0 0-.159 1.424l1.394 2.101-.653 5.503 1.285 3.418a.392.392 0 0 0 .737 0l1.284-3.418-.652-5.503 1.394-2.1a1.21 1.21 0 0 0-.16-1.425z" fill="#FF9623"/></svg>