<svg width="39" height="50" viewBox="0 0 39 50" fill="none" xmlns="http://www.w3.org/2000/svg">
<path d="M9.86666 19.7333C15.3072 19.7333 19.7333 15.3072 19.7333 9.86667C19.7333 4.42609 15.3072 0 9.86666 0C4.42609 0 0 4.42609 0 9.86667C0 15.3072 4.42609 19.7333 9.86666 19.7333Z" transform="translate(9.35724)" fill="#FF9623"/>
<path d="M32.4636 0.908586C32.4594 0.90724 32.4513 0.90421 32.4471 0.9032C31.1625 0.589395 27.2285 0.0390589 27.2285 0.0390589C26.7843 -0.0976414 26.3098 0.137544 26.15 0.57576L20.2285 16.8231C19.8869 17.7603 18.5613 17.7603 18.2197 16.8231L12.2981 0.57576C12.1692 0.221888 11.8352 0 11.4773 0C11.3924 0 7.34747 0.567172 6.00084 0.902021C2.32104 1.817 0 5.43552 0 9.20657V22.7254C0 24.7513 1.64242 26.3938 3.66835 26.3938H34.7764C36.8024 26.3938 38.4448 24.7513 38.4448 22.7254V9.16162C38.4446 5.4069 36.0327 2.07475 32.4636 0.908586Z" transform="translate(0 23.6062)" fill="#FF9623"/>
<path d="M4.79052 0.387039C4.55415 0.129463 4.2087 0 3.85921 0H1.2523C0.902807 0 0.557185 0.129632 0.32099 0.387039C-0.0448353 0.785692 -0.0980337 1.36162 0.161731 1.81162L1.55533 3.91246L0.902976 9.41583L2.18766 12.8333C2.31291 13.1771 2.79894 13.1771 2.92419 12.8333L4.20887 9.41583L3.55651 3.91246L4.95012 1.81162C5.20954 1.36162 5.15634 0.785692 4.79052 0.387039Z" transform="translate(16.6665 22.9485)" fill="#FF9623"/>
</svg>
