<svg width="44" height="49" viewBox="0 0 44 49" fill="none" xmlns="http://www.w3.org/2000/svg">
<path d="M5.38793 10.7759C8.3636 10.7759 10.7759 8.3636 10.7759 5.38793C10.7759 2.41226 8.3636 0 5.38793 0C2.41226 0 0 2.41226 0 5.38793C0 8.3636 2.41226 10.7759 5.38793 10.7759Z" transform="translate(16.1638 6.75854)" fill="#FF9623"/>
<path d="M16.1529 11.9504L14.9298 2.42457C14.7924 1.04256 13.6394 0 12.252 0H10.7757C10.4174 0 10.0753 0.14278 9.82207 0.393319L8.08177 2.13362L6.34147 0.393319C6.08824 0.14278 5.7461 0 5.38781 0H3.91421C2.52412 0 1.3711 1.04256 1.23641 2.38955L0.0106511 11.9531C-0.0378403 12.3357 0.0806937 12.7236 0.33662 13.0119C0.592547 13.3028 0.958926 13.4698 1.34686 13.4698H2.8016L3.92768 27.2091C4.06238 28.5884 5.21809 29.6336 6.60817 29.6336H9.55807C10.9482 29.6336 12.1012 28.5884 12.2413 27.1848L13.3646 13.4698H14.8167C15.2046 13.4698 15.571 13.3028 15.8269 13.0119C16.0855 12.7236 16.2041 12.3357 16.1529 11.9504Z" transform="translate(13.4699 19.3665)" fill="#FF9623"/>
<path d="M5.38793 10.7759C8.3636 10.7759 10.7759 8.3636 10.7759 5.38793C10.7759 2.41226 8.3636 0 5.38793 0C2.41226 0 0 2.41226 0 5.38793C0 8.3636 2.41226 10.7759 5.38793 10.7759Z" transform="translate(29.6336 6.75854)" fill="#FF9623"/>
<path d="M5.38793 0C2.41649 0 0 2.41649 0 5.38793C0 8.35938 2.41649 10.7759 5.38793 10.7759C8.35668 10.7759 10.7759 8.35938 10.7759 5.38793C10.7759 2.41649 8.35668 0 5.38793 0Z" transform="translate(2.69392 6.75854)" fill="#FF9623"/>
<path d="M13.1169 11.9504L11.8939 2.42726C11.7565 1.04256 10.6061 0 9.21606 0H7.73976C7.38147 0 7.03933 0.14278 6.7861 0.393319L5.0458 2.13362L3.3055 0.393319C3.05226 0.14278 2.71013 0 2.35453 0H0.878233C0.711207 0 0.560345 0.0592672 0.401401 0.0889008C0.748923 0.703125 1.02101 1.36853 1.10183 2.11476L2.3222 11.6083C2.47306 12.764 2.11207 13.9278 1.33621 14.8033C0.969828 15.2236 0.501078 15.5199 0 15.7516L0.894398 24.5151C1.03179 25.8971 2.18481 26.9397 3.57489 26.9397H6.52478C7.91487 26.9397 9.06789 25.8944 9.20797 24.4908L10.3287 13.4698H11.7807C12.1686 13.4698 12.535 13.3028 12.7909 13.0119C13.0496 12.7236 13.1681 12.3357 13.1169 11.9504Z" transform="translate(29.9757 19.3665)" fill="#FF9623"/>
<path d="M11.7834 14.7899C11.0183 13.9251 10.6627 12.764 10.8081 11.6137L12.0339 2.04741C12.1039 1.33082 12.368 0.684267 12.7047 0.0862071C12.5538 0.0592674 12.4111 0 12.2521 0H10.7758C10.4175 0 10.0754 0.14278 9.82216 0.393319L8.08186 2.13362L6.34155 0.393319C6.08832 0.14278 5.74619 0 5.39058 0H3.91421C2.52412 0 1.3711 1.04256 1.23641 2.38955L0.010651 11.9531C-0.0378403 12.3357 0.0806941 12.7236 0.336621 13.0119C0.592548 13.3028 0.961621 13.4698 1.34686 13.4698H2.8016L3.92768 24.5151C4.06238 25.8944 5.21809 26.9397 6.60817 26.9397H9.55806C10.9482 26.9397 12.1012 25.8944 12.2413 24.4908L13.1357 15.7489C12.632 15.5145 12.1605 15.2155 11.7834 14.7899Z" transform="translate(0 19.3665)" fill="#FF9623"/>
<path d="M12.6674 2.00167L6.65104 0.0250209C6.60281 0.0100083 6.5495 0 6.49873 0C6.44796 0 6.39465 0.00750626 6.34642 0.0250209L0.330014 2.00167C0.134544 2.06672 0 2.24687 0 2.45204C0 2.65721 0.132005 2.83736 0.330014 2.90242L3.0082 3.79566V5.9975L6.04179 5.00167C6.18903 4.95413 6.34388 4.92911 6.49873 4.92911C6.65358 4.92911 6.80844 4.95413 6.95567 5.00167L9.98926 6V3.78315L12.0353 3.10759V5.25188C12.0353 5.5146 12.2511 5.72727 12.5177 5.72727C12.7842 5.72727 13 5.5146 13 5.25188V2.45204C12.9975 2.24937 12.8655 2.06672 12.6674 2.00167Z" transform="translate(15)" fill="#FF9623"/>
<path d="M11.693 2.00167L6.13943 0.0250209C6.0949 0.0100083 6.04569 0 5.99883 0C5.95196 0 5.90275 0.00750626 5.85823 0.0250209L0.304628 2.00167C0.124195 2.06672 0 2.24687 0 2.45204C0 2.65721 0.121851 2.83736 0.304628 2.90242L2.7768 3.79566V5.9975L5.57704 5.00167C5.71295 4.95413 5.85589 4.92911 5.99883 4.92911C6.14177 4.92911 6.28471 4.95413 6.42062 5.00167L9.22086 6V3.78315L11.1095 3.10759V5.25188C11.1095 5.5146 11.3087 5.72727 11.5548 5.72727C11.8008 5.72727 12 5.5146 12 5.25188V2.45204C11.9977 2.24937 11.8758 2.06672 11.693 2.00167Z" transform="translate(2)" fill="#FF9623"/>
<path d="M11.693 2.00167L6.13943 0.0250209C6.0949 0.0100083 6.04569 0 5.99883 0C5.95196 0 5.90275 0.00750626 5.85823 0.0250209L0.304628 2.00167C0.124195 2.06672 0 2.24687 0 2.45204C0 2.65721 0.121851 2.83736 0.304628 2.90242L2.7768 3.79566V5.9975L5.57704 5.00167C5.71295 4.95413 5.85589 4.92911 5.99883 4.92911C6.14177 4.92911 6.28471 4.95413 6.42062 5.00167L9.22086 6V3.78315L11.1095 3.10759V5.25188C11.1095 5.5146 11.3087 5.72727 11.5548 5.72727C11.8008 5.72727 12 5.5146 12 5.25188V2.45204C11.9977 2.24937 11.8758 2.06672 11.693 2.00167Z" transform="translate(29)" fill="#FF9623"/>
</svg>
