<svg width="44" height="49" fill="none" xmlns="http://www.w3.org/2000/svg"><path d="M21.552 17.534a5.388 5.388 0 1 0 0-10.776 5.388 5.388 0 0 0 0 10.776zm8.071 13.783L28.4 21.79a2.684 2.684 0 0 0-2.678-2.425h-1.476c-.359 0-.7.143-.954.394l-1.74 1.74-1.74-1.74a1.357 1.357 0 0 0-.954-.394h-1.474c-1.39 0-2.543 1.043-2.678 2.39l-1.225 9.564c-.049.382.07.77.326 1.058.255.291.622.458 1.01.458h1.454l1.127 13.74A2.684 2.684 0 0 0 20.078 49h2.95a2.693 2.693 0 0 0 2.683-2.449l1.123-13.715h1.453c.387 0 .754-.167 1.01-.458.258-.288.377-.676.326-1.061zm5.399-13.783a5.388 5.388 0 1 0 0-10.776 5.388 5.388 0 0 0 0 10.776zM8.082 6.759a5.393 5.393 0 0 0-5.388 5.387 5.393 5.393 0 0 0 5.388 5.388 5.395 5.395 0 0 0 5.388-5.388A5.395 5.395 0 0 0 8.082 6.76zm35.011 24.558l-1.223-9.523a2.682 2.682 0 0 0-2.678-2.428h-1.477c-.358 0-.7.143-.953.394l-1.74 1.74-1.74-1.74a1.355 1.355 0 0 0-.952-.394h-1.476c-.167 0-.318.06-.477.09.348.614.62 1.279.7 2.025l1.22 9.494a4.03 4.03 0 0 1-.985 3.195c-.366.42-.835.716-1.336.948l.894 8.764a2.684 2.684 0 0 0 2.68 2.424h2.95a2.693 2.693 0 0 0 2.684-2.449l1.12-11.02h1.452c.388 0 .755-.168 1.01-.459.26-.288.378-.676.327-1.061zm-31.31 2.839a4.035 4.035 0 0 1-.975-3.176l1.226-9.566c.07-.717.334-1.363.67-1.961-.15-.027-.293-.087-.452-.087h-1.476c-.358 0-.7.143-.954.394l-1.74 1.74-1.74-1.74a1.355 1.355 0 0 0-.951-.394H3.914c-1.39 0-2.543 1.043-2.678 2.39L.011 31.32a1.348 1.348 0 0 0 1.336 1.517h1.455l1.126 11.045a2.685 2.685 0 0 0 2.68 2.424h2.95a2.693 2.693 0 0 0 2.683-2.449l.895-8.742c-.504-.234-.975-.533-1.353-.959zM27.667 2.002L21.651.025A.524.524 0 0 0 21.499 0a.452.452 0 0 0-.153.025L15.33 2.002a.477.477 0 0 0-.33.45c0 .205.132.385.33.45l2.678.894v2.201l3.034-.995a1.491 1.491 0 0 1 .914 0L24.989 6V3.783l2.046-.675v2.144c0 .263.216.475.483.475A.479.479 0 0 0 28 5.252v-2.8a.482.482 0 0 0-.333-.45zm-13.974 0L8.139.025A.45.45 0 0 0 8 0a.388.388 0 0 0-.14.025L2.304 2.002a.475.475 0 0 0-.305.45c0 .205.122.385.305.45l2.472.894v2.201l2.8-.995a1.28 1.28 0 0 1 .844 0l2.8.998V3.783l1.889-.675v2.144c0 .263.199.475.445.475S14 5.515 14 5.252v-2.8a.48.48 0 0 0-.307-.45zm27 0L35.139.025A.45.45 0 0 0 35 0a.388.388 0 0 0-.14.025l-5.554 1.977a.475.475 0 0 0-.305.45c0 .205.122.385.305.45l2.472.894v2.201l2.8-.995a1.28 1.28 0 0 1 .844 0l2.8.998V3.783l1.889-.675v2.144c0 .263.199.475.445.475S41 5.515 41 5.252v-2.8a.48.48 0 0 0-.307-.45z" fill="#FF9623"/></svg>