<svg width="35" height="50" fill="none" xmlns="http://www.w3.org/2000/svg"><path d="M13.364 16.663h2.673v-6.73c-1.147 1.349-2.38 3.51-2.673 6.73zm5.599-6.73v6.73h2.673c-.293-3.22-1.526-5.381-2.673-6.73zM7.74 16.663h2.687c.235-3.109 1.202-5.463 2.317-7.19a9.903 9.903 0 0 0-5.004 7.19zm2.687 2.929H7.74a9.904 9.904 0 0 0 5.004 7.19c-1.115-1.727-2.082-4.081-2.317-7.19zm2.937 0c.295 3.211 1.528 5.373 2.673 6.723v-6.723h-2.673z" fill="#FF9623"/><path d="M0 0v50h35V0H0zm29.253 42.607H5.747v-2.93h23.506v2.93zM17.5 30.937c-7.055 0-12.795-5.747-12.795-12.81 0-7.062 5.74-12.809 12.795-12.809s12.795 5.747 12.795 12.81c0 7.062-5.74 12.809-12.795 12.809z" fill="#FF9623"/><path d="M22.256 9.474c1.115 1.726 2.082 4.08 2.317 7.188h2.687a9.904 9.904 0 0 0-5.004-7.188zm2.317 10.118c-.235 3.109-1.202 5.463-2.317 7.19a9.904 9.904 0 0 0 5.004-7.19h-2.687zm-5.61 0v6.73c1.147-1.349 2.38-3.51 2.673-6.73h-2.673z" fill="#FF9623"/></svg>