<svg width="35" height="50" viewBox="0 0 35 50" fill="none" xmlns="http://www.w3.org/2000/svg">
<path d="M0 6.72939H2.67294V0C1.52635 1.34863 0.293623 3.50947 0 6.72939Z" transform="translate(13.3638 9.93311)" fill="#FF9623"/>
<path d="M0 0V6.72939H2.67294C2.37932 3.50947 1.14659 1.34863 0 0Z" transform="translate(18.9632 9.93311)" fill="#FF9623"/>
<path d="M0 7.18887H2.6867C2.92208 4.08037 3.88879 1.72617 5.00348 0C2.36556 1.45889 0.461895 4.09111 0 7.18887Z" transform="translate(7.74022 9.47363)" fill="#FF9623"/>
<path d="M2.6867 0H0C0.461895 3.09775 2.36556 5.72998 5.00339 7.18887C3.88879 5.4627 2.92208 3.1085 2.6867 0Z" transform="translate(7.74022 19.5923)" fill="#FF9623"/>
<path d="M0 0C0.2945 3.21084 1.52771 5.37246 2.67245 6.72266V0H0Z" transform="translate(13.3643 19.5923)" fill="#FF9623"/>
<path d="M0 0V50H35V0H0ZM29.253 42.6073H5.747V39.6776H29.253V42.6073ZM17.5 30.9366C10.4449 30.9366 4.70508 25.1904 4.70508 18.1274C4.70508 11.0646 10.4449 5.31836 17.5 5.31836C24.5551 5.31836 30.2949 11.0646 30.2949 18.1274C30.2949 25.1904 24.5551 30.9366 17.5 30.9366Z" fill="#FF9623"/>
<path d="M0 0C1.11459 1.72617 2.08131 4.08037 2.31679 7.18887H5.00348C4.54149 4.09111 2.63782 1.45889 0 0Z" transform="translate(22.2564 9.47363)" fill="#FF9623"/>
<path d="M2.31669 0C2.08121 3.1085 1.1145 5.4627 0 7.18887C2.63782 5.72998 4.54149 3.09775 5.00338 0H2.31669Z" transform="translate(22.2565 19.5923)" fill="#FF9623"/>
<path d="M0 0V6.72959C1.14659 5.38096 2.37932 3.22012 2.67294 0H0Z" transform="translate(18.9632 19.5923)" fill="#FF9623"/>
</svg>
