<svg width="24" height="24" fill="none" xmlns="http://www.w3.org/2000/svg"><path d="M23.989 18.94c.05.39-.068.73-.356 1.018l-3.38 3.355a1.9 1.9 0 0 1-.596.433 2.463 2.463 0 0 1-.724.228c-.017 0-.068.005-.153.013a3.434 3.434 0 0 1-.33.013c-.322 0-.843-.055-1.563-.165-.72-.11-1.6-.382-2.642-.814-1.042-.432-2.223-1.08-3.544-1.945-1.321-.864-2.727-2.05-4.218-3.56-1.186-1.169-2.168-2.287-2.947-3.355-.78-1.068-1.406-2.055-1.88-2.962C1.18 10.292.826 9.47.589 8.733a12.763 12.763 0 0 1-.483-1.907C.02 6.292-.013 5.873.004 5.568c.017-.305.026-.475.026-.509.034-.237.11-.479.228-.724.119-.246.263-.445.432-.598L4.07.356C4.306.119 4.577 0 4.881 0c.22 0 .415.064.585.19.17.128.313.285.432.471l2.718 5.161c.153.271.195.568.127.89a1.585 1.585 0 0 1-.432.813L7.067 8.771a.424.424 0 0 0-.089.165.628.628 0 0 0-.038.191c.068.356.22.763.458 1.22.203.407.516.903.94 1.488.423.584 1.025 1.258 1.804 2.02.762.78 1.44 1.386 2.032 1.819.593.432 1.089.75 1.487.953.398.204.703.326.914.369l.318.063a.578.578 0 0 0 .165-.038.425.425 0 0 0 .165-.089l1.448-1.474a1.55 1.55 0 0 1 1.067-.407c.288 0 .517.05.686.152h.026l4.903 2.899c.356.22.568.5.636.839z" fill="#FF9623"/></svg>