<svg width="50" height="50" fill="none" xmlns="http://www.w3.org/2000/svg"><path d="M46.627 37.536a24.871 24.871 0 0 0 3.372-12.349C50.1 11.481 39.042.182 25.336.002 11.229-.182-.227 11.312.003 25.416c.224 13.675 11.51 24.686 25.188 24.583 3.989-.03 7.752-1 11.087-2.689l6.626-.014a3.743 3.743 0 0 0 3.736-3.752l-.013-6.008z" fill="#0D3D6F"/><path d="M22.65.11C9.803 1.308-.213 12.22.002 25.415c.21 12.819 10.14 23.296 22.646 24.475V.11z" fill="#12649E"/><path d="M48.948 32.185a24.913 24.913 0 0 0 1.051-6.997 24.857 24.857 0 0 0-1.056-7.372h-13.15l8.6-8.557a25.292 25.292 0 0 0-3.553-3.572l-8.619 8.575V1.067A24.835 24.835 0 0 0 25.336.003c-2.63-.034-5.17.338-7.557 1.057v13.202l-8.634-8.59A25.147 25.147 0 0 0 5.59 9.244l8.616 8.572H1.047a25.024 25.024 0 0 0-1.044 7.6 24.84 24.84 0 0 0 1.051 6.77h13.153l-8.602 8.558a25.287 25.287 0 0 0 3.556 3.57l8.618-8.575v13.194A24.857 24.857 0 0 0 25.191 50a24.91 24.91 0 0 0 7.03-1.064V35.74L43.74 47.2a3.744 3.744 0 0 0 2.9-3.655l-.001-.569-10.846-10.79h13.155z" fill="#E3E3E3"/><path d="M23.096 49.927V.073a24.926 24.926 0 0 0-5.317.986v13.203L9.145 5.67A25.146 25.146 0 0 0 5.59 9.243l8.616 8.572H1.047a25.024 25.024 0 0 0-1.044 7.6 24.93 24.93 0 0 0 1.05 6.77h13.154l-8.602 8.558a25.286 25.286 0 0 0 3.556 3.57l8.618-8.574v13.193c1.705.517 3.485.855 5.317.995z" fill="#fff"/><path d="M49.67 20.947H29.074V.334A25.186 25.186 0 0 0 20.928.33v20.616H.328a25.196 25.196 0 0 0 .003 8.105h20.597v20.614a24.961 24.961 0 0 0 8.146 0V29.053h20.597a25.024 25.024 0 0 0 0-8.106z" fill="#B13D0F"/><path d="M25 0c-1.386 0-2.747.114-4.072.331v20.617H.328a25.197 25.197 0 0 0 .003 8.105h20.597v20.613c1.326.22 2.687.334 4.073.334V0z" fill="#EF5517"/></svg>