<svg width="50" height="54" viewBox="0 0 50 54" fill="none" xmlns="http://www.w3.org/2000/svg">
<mask id="mask0" mask-type="alpha" maskUnits="userSpaceOnUse" x="0" y="0" width="51" height="54">
<path d="M50 28.5C50 42.3071 38.8071 53.5 25 53.5C11.1929 53.5 0 42.3071 0 28.5C0 14.6929 2.38419e-06 0 2.38419e-06 0H50C50 0 50 18.8394 50 28.5Z" transform="translate(0 0.5)" fill="#C4C4C4"/>
</mask>
<g mask="url(#mask0)">
<path d="M14.2763 0L0 22.797H5.63282V38.6872H25.108V22.797H28.5524L14.2763 0Z" transform="translate(0 11.9741)" fill="#FF9623"/>
<path d="M14.2763 0L0 22.7969H3.66188V46.2594H22.9197V22.7969H28.5524L14.2763 0Z" transform="translate(21.4476 1)" fill="#EF5517"/>
<path d="M20.9825 0C9.41269 0 0 9.44105 0 21.0457V22.6918H41.965V21.0457C41.965 9.44105 32.5523 0 20.9825 0Z" transform="translate(4.601 34.5173)" fill="#12649E"/>
<path d="M0 0V22.6918H20.9825V21.0457C20.9825 9.44105 11.5698 0 0 0Z" transform="translate(25.5835 34.5173)" fill="#0D3D6F"/>
<path d="M8.95364 0C5.72169 0.178837 2.68205 1.09322 0 2.5809L4.28544 22.6573H8.95364V0Z" transform="translate(15.463 34.5519)" fill="#9BE15D"/>
<path d="M0 0C3.23195 0.178837 6.27148 1.09322 8.95375 2.5809L4.66831 22.6573H0.000110229V0H0Z" transform="translate(26.7506 34.5519)" fill="#0BA360"/>
<path d="M6.90631 21.7036V0.000110561L0 0L4.02527 7.09322L1.69117 21.7036H6.90631Z" transform="translate(19.2242 35.5055)" fill="#FFCE2A"/>
<path d="M6.35894 2.03506L0 0V23.7386H4.66831L2.33421 9.12817L6.35894 2.03506Z" transform="translate(25.5835 33.4706)" fill="#FF9623"/>
<path d="M13.9007 0C6.2358 0 0 6.2547 0 13.9426C0 21.6305 6.23591 27.8852 13.9007 27.8852C21.5658 27.8852 27.8016 21.6305 27.8016 13.9426C27.8016 6.2547 21.5658 0 13.9007 0Z" transform="translate(11.6828 9.16675)" fill="#FFE3BA"/>
<path d="M0 27.8852C7.66504 27.8852 13.9008 21.6305 13.9008 13.9426C13.9008 6.2547 7.66504 0 0 0" transform="translate(25.5835 9.16675)" fill="#FFCD81"/>
<path d="M6.7962 6.81679C3.04872 6.81679 0 3.75888 0 0H3.2823C3.2823 1.94339 4.85854 3.52449 6.79609 3.52449C8.73364 3.52449 10.3099 1.94339 10.3099 0H13.5922C13.5924 3.75877 10.5437 6.81679 6.7962 6.81679Z" transform="translate(18.7873 23.1093)" fill="white"/>
<path d="M3.5011 0H0V3.29219H3.5011V0Z" transform="translate(32.5854 44.3331)" fill="#79F1A4"/>
<path d="M3.51379 0.000110561C3.51379 1.9435 1.93755 3.52449 0 3.5246V6.81679C3.74748 6.81679 6.7962 3.75888 6.7962 0H3.51379V0.000110561Z" transform="translate(25.5836 23.1093)" fill="#FFF8D5"/>
</g>
</svg>
