<svg width="46" height="50" fill="none" xmlns="http://www.w3.org/2000/svg"><path d="M22.683 50a34.917 34.917 0 0 0 22.683-32.704V8.468A8.468 8.468 0 0 1 36.898 0H8.468A8.468 8.468 0 0 1 0 8.468v8.828C0 31.861 9.041 44.896 22.683 50z" fill="#FFCE2A"/><path d="M22.683 50a34.917 34.917 0 0 0 22.683-32.704V8.468A8.468 8.468 0 0 1 36.898 0H22.683v50z" fill="#FF9623"/><path d="M19.523 33.817l-7.52-7.52 4.144-4.143 3.376 3.376 9.697-9.696 4.143 4.143-13.84 13.84z" fill="#fff"/><path d="M22.683 30.657V22.37l6.537-6.536 4.143 4.143-10.68 10.68z" fill="#E6E6E6"/></svg>