<svg width="50" height="50" fill="none" xmlns="http://www.w3.org/2000/svg"><path d="M22.236 47.175a4 4 0 0 0 5.657-.007l20.406-20.462c.628-.63.182-1.706-.709-1.706h-7.617V4a4 4 0 0 0-4-4H13.776a4 4 0 0 0-4 4.022L9.891 25H2.419c-.892 0-1.338 1.078-.706 1.708l20.523 20.467z" fill="#FF9623"/><mask id="a" maskUnits="userSpaceOnUse" x="1" y="0" width="48" height="49"><path d="M27.764 2.825a4 4 0 0 0-5.657.007L1.701 23.294C1.073 23.924 1.52 25 2.41 25h7.617v21a4 4 0 0 0 4 4h22.197a4 4 0 0 0 4-4.022L40.109 25h7.472c.892 0 1.338-1.078.706-1.708L27.764 2.825z" transform="rotate(-180 25 25)" fill="#FF9623"/></mask><g mask="url(#a)"><path d="M25.068 50L50 25H39.973V4a4 4 0 0 0-4-4H25.068v50z" fill="#EF5517"/></g><path d="M31.732 28.458c-1.73 2.034-4.065 2.818-6.254 2.457-2.44-.402-4.809-2.181-5.872-5.21h-1.564c-1.375 0-1.375-2.118 0-2.118h1.126c-.104-1.102-.104-1.158 0-2.26h-1.126A1.04 1.04 0 0 1 17 20.268a1.04 1.04 0 0 1 1.042-1.059h1.564c1.063-3.05 3.474-4.744 5.872-5.125 2.251-.36 4.628.444 6.254 2.372.896 1.059-.667 2.436-1.584 1.377-1.21-1.44-3.002-2.034-4.67-1.61-1.355.318-2.766 1.27-3.579 2.986h4.621c1.376 0 1.376 2.118 0 2.118h-5.267a8.196 8.196 0 0 0 0 2.26h5.267c1.376 0 1.376 2.118 0 2.118H21.9c.813 1.694 2.224 2.669 3.579 2.986 1.668.424 3.46-.17 4.67-1.61.917-1.058 2.48.318 1.584 1.377z" fill="#fff"/></svg>