<svg width="50" height="54" viewBox="0 0 50 54" fill="none" xmlns="http://www.w3.org/2000/svg">
<mask id="mask0" mask-type="alpha" maskUnits="userSpaceOnUse" x="0" y="0" width="51" height="54">
<path d="M50 28.5C50 42.3071 38.8071 53.5 25 53.5C11.1929 53.5 0 42.3071 0 28.5C0 14.6929 2.38419e-06 0 2.38419e-06 0H50C50 0 50 18.8394 50 28.5Z" fill="#C4C4C4"/>
</mask>
<g mask="url(#mask0)">
<path d="M39 19L34.8933 22.5125L37.0721 27.4567L31.8431 28.8337L31.6592 34.2335L26.3495 33.2154L23.8387 38L19.5 34.7731L15.1613 38L12.6505 33.2154L7.34082 34.2335L7.15678 28.8337L1.9279 27.4566L4.1067 22.5126L0 19L4.1067 15.4875L1.9279 10.5433L7.15687 9.16631L7.34082 3.76652L12.6505 4.78463L15.1613 0L19.5 3.2269L23.8386 0L26.3495 4.78463L31.6592 3.76652L31.8432 9.16631L37.0721 10.5434L34.8933 15.4874L39 19Z" transform="translate(11 3)" fill="#FDEB95"/>
<path d="M13 25.9792C20.1797 25.9792 26 20.1636 26 12.9896C26 5.81565 20.1797 0 13 0C5.8203 0 0 5.81565 0 12.9896C0 20.1636 5.8203 25.9792 13 25.9792Z" transform="translate(17.5 9.01038)" fill="#FFCE2A"/>
<path d="M39.6211 9.95875C45.5525 9.62312 50.6388 14.0575 50.9817 19.863C51.3246 25.6685 46.7941 30.6468 40.8627 30.9825C40.4491 31.0058 40.0347 31.0058 39.6211 30.9825H8.39361C3.75611 30.9805 -0.00194163 27.2994 7.5261e-07 22.7603C0.00194313 18.2239 3.7588 14.5468 8.39361 14.5449H8.99127C8.0011 7.54883 12.9927 1.09167 20.1405 0.122529C27.2883 -0.846615 33.8855 4.03903 34.8757 11.0351C36.3518 10.3238 37.9757 9.95538 39.6211 9.95875Z" transform="translate(-7 23)" fill="white"/>
</g>
</svg>
