<svg width="50" height="50" viewBox="0 0 50 50" fill="none" xmlns="http://www.w3.org/2000/svg">
<mask id="mask0" mask-type="alpha" maskUnits="userSpaceOnUse" x="0" y="0" width="50" height="50">
<circle cx="25" cy="25" r="25" fill="#C4C4C4"/>
</mask>
<g mask="url(#mask0)">
<path d="M0.0771864 19.1937L9.09213 0.442871C9.2226 0.17207 9.49574 0 9.79633 0H22.3902C22.6587 0 22.9082 0.138086 23.0516 0.36543C23.1943 0.592773 23.2103 0.877734 23.0944 1.11963L11.1421 25.9804C11.0453 26.1814 10.8674 26.3317 10.6531 26.3932C10.5829 26.4134 10.5104 26.4233 10.4379 26.4233C10.2914 26.4233 10.1465 26.3821 10.0199 26.3024L0.363319 20.1925C0.0283576 19.9803 -0.0943956 19.5507 0.0771864 19.1937Z" transform="translate(26.2747)" fill="#12649E"/>
<path d="M11.2331 0H17.0127C17.2813 0 17.5308 0.138086 17.6741 0.36543C17.8168 0.592773 17.8328 0.877734 17.7169 1.11963L5.76465 25.9804C5.66777 26.1814 5.48994 26.3317 5.27559 26.3932C5.20537 26.4134 5.13291 26.4233 5.06045 26.4233C4.91396 26.4233 4.76905 26.3821 4.64239 26.3024L0 23.365L11.2331 0Z" transform="translate(31.6521)" fill="#0D3D6F"/>
<path d="M23.0939 19.1937L14.0791 0.442871C13.9486 0.17207 13.6755 0 13.3749 0H0.781037C0.512483 0 0.262971 0.138086 0.119611 0.36543C-0.0230644 0.592773 -0.03908 0.877734 0.076838 1.11963L12.0291 25.9804C12.126 26.1814 12.3038 26.3317 12.5181 26.3932C12.5884 26.4134 12.6608 26.4233 12.7333 26.4233C12.8798 26.4233 13.0247 26.3821 13.1514 26.3024L22.8079 20.1925C23.1428 19.9803 23.2656 19.5507 23.0939 19.1937Z" fill="#12649E"/>
<path d="M6.56063 0H0.781037C0.512483 0 0.262971 0.138086 0.119611 0.36543C-0.0230644 0.592773 -0.03908 0.877734 0.076838 1.11963L12.0291 25.9804C12.126 26.1814 12.3038 26.3317 12.5181 26.3932C12.5884 26.4134 12.6608 26.4233 12.7333 26.4233C12.8798 26.4233 13.0247 26.3821 13.1514 26.3024L17.7937 23.365L6.56063 0Z" fill="#0D3D6F"/>
<path d="M15.625 31.25C24.2544 31.25 31.25 24.2544 31.25 15.625C31.25 6.99555 24.2544 0 15.625 0C6.99555 0 0 6.99555 0 15.625C0 24.2544 6.99555 31.25 15.625 31.25Z" transform="translate(9.10857 18.75)" fill="#FFCE2A"/>
<path d="M15.625 26.6735C19.9397 26.6735 23.846 24.9246 26.6734 22.0971L4.57646 0C1.74883 2.82754 0 6.73379 0 11.0485C0 19.6779 6.99551 26.6735 15.625 26.6735Z" transform="translate(9.10857 23.3264)" fill="#EF5517"/>
<path d="M12.3095 15.8001C12.0531 15.8001 11.7952 15.7383 11.5572 15.6132L8.22393 13.8611L4.89063 15.6132C4.34287 15.9004 3.69053 15.8527 3.1916 15.4899C2.69033 15.126 2.44473 14.521 2.54922 13.911L3.18555 10.2001L0.488575 7.57217C0.0453132 7.13955 -0.111131 6.50557 0.0803725 5.91699C0.271876 5.32842 0.770802 4.90684 1.3835 4.81758L5.10967 4.27627L6.77666 0.899902C7.04981 0.345214 7.60449 0.000390625 8.22315 0H8.22393C8.84346 0 9.39805 0.344824 9.67197 0.899902L11.3383 4.27627L15.0637 4.81758C15.6771 4.90684 16.1761 5.32832 16.3676 5.91699C16.5591 6.50566 16.4026 7.13965 15.9594 7.57178L13.2624 10.2001L13.8994 13.911C14.0039 14.521 13.7583 15.126 13.257 15.4899C12.974 15.6956 12.6429 15.8001 12.3095 15.8001ZM1.57949 6.45293L4.57022 9.36777C4.7541 9.54746 4.83799 9.80605 4.79453 10.0594L4.08877 14.1751L4.52744 14.9217L4.16426 14.2301L7.86074 12.2869C8.08809 12.1671 8.35967 12.1671 8.58701 12.2869L12.2835 14.2301L13.1296 14.0432L12.3598 14.1752L11.6533 10.0595C11.6099 9.80615 11.6938 9.54756 11.8776 9.36787L14.8684 6.45303L14.9516 5.59092L14.8395 6.36416L10.7073 5.76377C10.4525 5.72676 10.2328 5.56689 10.1191 5.33613L8.27129 1.5916C8.27129 1.59238 8.22471 1.59199 8.19648 1.5916C8.18506 1.5916 8.17744 1.5916 8.17744 1.5916L6.32881 5.33652C6.21514 5.56689 5.99541 5.72676 5.74063 5.76377L1.6086 6.36416L1.03408 7.01269L1.57949 6.45293Z" transform="translate(16.5096 26.3099)" fill="white"/>
<path d="M0.781345 1.55281C0.577634 1.55281 0.374706 1.46658 0.225878 1.32624C0.0778309 1.17781 0 0.974487 0 0.771557C0 0.568237 0.0778309 0.365308 0.225878 0.21687C0.515038 -0.07229 1.03838 -0.07229 1.32754 0.21687C1.47627 0.365308 1.5625 0.568237 1.5625 0.771557C1.5625 0.974487 1.47627 1.17781 1.32754 1.32624C1.18721 1.46658 0.984275 1.55281 0.781345 1.55281Z" transform="translate(36.4545 33.6035)" fill="white"/>
<path d="M0.781249 1.55281C0.56992 1.55281 0.37461 1.46658 0.225879 1.32624C0.0778324 1.17781 0 0.974487 0 0.771557C0 0.568237 0.0778324 0.365308 0.225879 0.21687C0.515039 -0.07229 1.03838 -0.07229 1.32754 0.21687C1.47627 0.365308 1.5625 0.568237 1.5625 0.771557C1.5625 0.974487 1.47627 1.17781 1.32754 1.32624C1.18711 1.46658 0.984178 1.55281 0.781249 1.55281Z" transform="translate(23.9546 21.1035)" fill="white"/>
<path d="M0.78125 1.55281C0.57832 1.55281 0.374609 1.46658 0.234179 1.31824C0.0854487 1.17781 0 0.974488 0 0.771558C0 0.560621 0.0854487 0.3573 0.234179 0.21687C0.515722 -0.07229 1.04668 -0.07229 1.33584 0.21687C1.48389 0.365308 1.5624 0.560621 1.5624 0.771558C1.5624 0.974488 1.48379 1.17781 1.33584 1.31824C1.18721 1.46667 0.991895 1.55281 0.78125 1.55281Z" transform="translate(15.1105 24.7673)" fill="white"/>
<path d="M0.78125 1.55091C0.57832 1.55091 0.37461 1.47268 0.226563 1.32434C0.0861335 1.18362 0 0.9803 0 0.769655C0 0.566335 0.0862312 0.363403 0.226563 0.222583C0.523341 -0.0741943 1.03906 -0.0741943 1.33584 0.222583C1.47627 0.363306 1.5624 0.566335 1.5624 0.769655C1.5624 0.980202 1.47617 1.17551 1.33584 1.32434C1.18721 1.47278 0.984277 1.55091 0.78125 1.55091Z" transform="translate(32.7901 42.4413)" fill="white"/>
<path d="M0.78125 1.55281C0.57832 1.55281 0.37461 1.46658 0.226563 1.32625C0.0861335 1.17781 0 0.974488 0 0.771558C0 0.560621 0.0862312 0.3573 0.226563 0.21687C0.515723 -0.07229 1.03906 -0.07229 1.33584 0.21687C1.47627 0.3573 1.5624 0.560621 1.5624 0.771558C1.5624 0.974488 1.47617 1.17781 1.33584 1.32625C1.18721 1.46667 0.984277 1.55281 0.78125 1.55281Z" transform="translate(32.7901 24.7673)" fill="white"/>
<path d="M0.78125 1.55281C0.57832 1.55281 0.375391 1.46697 0.226563 1.31824C0.0861335 1.17781 0 0.974487 0 0.771557C0 0.560619 0.0862312 0.3573 0.226563 0.21687C0.523341 -0.07229 1.03906 -0.07229 1.33584 0.21687C1.47695 0.3573 1.5624 0.560619 1.5624 0.771557C1.5624 0.974487 1.47695 1.17781 1.33584 1.31824C1.18789 1.46697 0.98418 1.55281 0.78125 1.55281Z" transform="translate(35.5009 28.822)" fill="white"/>
<path d="M0.78125 1.55281C0.57832 1.55281 0.37539 1.46697 0.23496 1.31863C0.0862295 1.1779 0 0.974877 0 0.771557C0 0.568627 0.0862295 0.365308 0.23496 0.21687C0.523339 -0.07229 1.04746 -0.07229 1.33584 0.21687C1.48457 0.365308 1.5624 0.560619 1.5624 0.771557C1.5624 0.974877 1.48457 1.17781 1.33584 1.32625C1.18789 1.46697 0.992578 1.55281 0.78125 1.55281Z" transform="translate(19.1648 22.0564)" fill="white"/>
<path d="M0.78125 1.55051C0.57832 1.55051 0.375391 1.47268 0.226563 1.32395C0.0861335 1.17551 0 0.980199 0 0.769262C0 0.566332 0.0862312 0.363013 0.226563 0.222583C0.515723 -0.0741943 1.04668 -0.0741943 1.33584 0.222583C1.47695 0.363013 1.5624 0.566332 1.5624 0.769262C1.5624 0.980199 1.47695 1.17551 1.33584 1.32395C1.18789 1.47268 0.98418 1.55051 0.78125 1.55051Z" transform="translate(35.5009 38.3867)" fill="white"/>
<path d="M0.78125 1.55281C0.57832 1.55281 0.375391 1.46697 0.226563 1.32625C0.0861335 1.17781 0 0.974877 0 0.771557C0 0.560619 0.0862312 0.35769 0.226563 0.21687C0.515723 -0.07229 1.03906 -0.07229 1.33584 0.21687C1.47695 0.365308 1.5624 0.560619 1.5624 0.771557C1.5624 0.974877 1.47695 1.17781 1.33584 1.32625C1.18789 1.46697 0.984961 1.55281 0.78125 1.55281Z" transform="translate(28.7351 22.0564)" fill="white"/>
<path d="M0.78125 1.55291C0.569922 1.55291 0.366993 1.46668 0.226563 1.32634C0.0778327 1.17761 0 0.974587 0 0.771657C0 0.568337 0.0778327 0.365405 0.226563 0.216577C0.515723 -0.0721924 1.03906 -0.0721924 1.32822 0.216577C1.47627 0.365308 1.5624 0.568337 1.5624 0.771657C1.5624 0.974587 1.47617 1.17752 1.32822 1.32634C1.18721 1.46677 0.98418 1.55291 0.78125 1.55291Z" transform="translate(36.2043 31.1111)" fill="white"/>
<path d="M0.78125 1.55281C0.569922 1.55281 0.374609 1.46697 0.226562 1.32625C0.0778313 1.17781 0 0.982496 0 0.771558C0 0.568629 0.0778313 0.365308 0.226562 0.21687C0.515722 -0.07229 1.03906 -0.07229 1.33584 0.21687C1.47627 0.365308 1.5624 0.568629 1.5624 0.771558C1.5624 0.974488 1.47617 1.17781 1.33584 1.32625C1.18721 1.46697 0.984277 1.55281 0.78125 1.55281Z" transform="translate(21.462 21.3533)" fill="white"/>
<path d="M0.78125 1.55251C0.577539 1.55251 0.374607 1.46668 0.22656 1.32634C0.0854469 1.17761 0 0.982299 0 0.771264C0 0.568334 0.0854469 0.365405 0.22656 0.216577C0.51572 -0.0721924 1.04668 -0.0721924 1.33584 0.216577C1.47627 0.365308 1.5624 0.568334 1.5624 0.771264C1.5624 0.982201 1.47617 1.17752 1.33584 1.32634C1.18711 1.46668 0.98418 1.55251 0.78125 1.55251Z" transform="translate(34.3764 40.502)" fill="white"/>
<path d="M0.78125 1.55281C0.57832 1.55281 0.375388 1.46697 0.22656 1.32625C0.0861306 1.17781 0 0.974877 0 0.771557C0 0.560619 0.0862282 0.365308 0.22656 0.21687C0.51572 -0.07229 1.04746 -0.07229 1.32822 0.21687C1.47695 0.357593 1.5624 0.560619 1.5624 0.771557C1.5624 0.974877 1.47695 1.17781 1.32822 1.32625C1.18789 1.46697 0.984961 1.55281 0.78125 1.55281Z" transform="translate(30.8523 23.1813)" fill="white"/>
<path d="M0.78125 1.55281C0.57832 1.55281 0.37461 1.47459 0.226563 1.32625C0.0854499 1.18552 0 0.982497 0 0.77156C0 0.56863 0.0854499 0.365308 0.226563 0.21687C0.523341 -0.07229 1.03906 -0.07229 1.33584 0.21687C1.48389 0.365308 1.5624 0.56863 1.5624 0.77156C1.5624 0.982497 1.48379 1.18543 1.33584 1.32625C1.18711 1.47468 0.991797 1.55281 0.78125 1.55281Z" transform="translate(34.3138 26.6111)" fill="white"/>
<path d="M0.78125 1.54519C0.569922 1.54519 0.37461 1.46697 0.226563 1.31863C0.0854499 1.1779 0 0.974877 0 0.771557C0 0.560619 0.0854499 0.35769 0.226563 0.21687C0.515723 -0.07229 1.04668 -0.07229 1.33584 0.21687C1.47627 0.357593 1.5624 0.560619 1.5624 0.771557C1.5624 0.974877 1.47617 1.17781 1.33584 1.31863C1.18721 1.46697 0.98418 1.54519 0.78125 1.54519Z" transform="translate(16.9622 23.2439)" fill="white"/>
<path d="M0.78125 1.55281C0.57832 1.55281 0.375388 1.47459 0.22656 1.32625C0.0861306 1.17781 0 0.982497 0 0.77156C0 0.56863 0.0862282 0.365308 0.22656 0.21687C0.523338 -0.07229 1.03906 -0.07229 1.33584 0.21687C1.48457 0.365308 1.5624 0.56863 1.5624 0.77156C1.5624 0.982497 1.48457 1.17781 1.33584 1.32625C1.18789 1.47468 0.992578 1.55281 0.78125 1.55281Z" transform="translate(36.2196 35.9861)" fill="white"/>
<path d="M0.78125 1.5509C0.569922 1.5509 0.37461 1.47268 0.226563 1.32434C0.0854499 1.1759 0 0.980591 0 0.769654C0 0.566333 0.0854499 0.363403 0.226563 0.222583C0.515723 -0.0741943 1.03906 -0.0741943 1.33584 0.222583C1.47627 0.363306 1.5624 0.566333 1.5624 0.769654C1.5624 0.980591 1.47617 1.18352 1.33584 1.32434C1.18721 1.47268 0.98418 1.5509 0.78125 1.5509Z" transform="translate(26.3372 21.3319)" fill="white"/>
<path d="M12.3096 11.4386C12.643 11.4386 12.9741 11.3341 13.2571 11.1284C13.7584 10.7645 14.004 10.1595 13.8995 9.54951L13.8642 9.34365L11.9508 7.43027L12.3599 9.81348L13.1297 9.68145L12.2836 9.86836L8.58711 7.9252C8.35977 7.80537 8.08819 7.80537 7.86084 7.9252L4.16436 9.86836L4.52754 10.56L4.08887 9.81338L4.79463 5.69766C4.83809 5.44434 4.7542 5.18574 4.57031 5.00606L1.57959 2.09121L1.03408 2.65078L1.6086 2.00225L5.74063 1.40186C5.79033 1.39463 5.83711 1.3791 5.88359 1.36289L4.5208 0L1.3835 0.455764C0.7709 0.545022 0.271876 0.966506 0.0803722 1.55518C-0.111132 2.14385 0.0453144 2.77783 0.488576 3.21035L3.18555 5.83828L2.54922 9.54922C2.44473 10.1592 2.69033 10.7642 3.1916 11.1281C3.69053 11.4909 4.34287 11.5386 4.89063 11.2514L8.22393 9.49932L11.5572 11.2514C11.7954 11.3768 12.0532 11.4386 12.3096 11.4386Z" transform="translate(16.5095 30.6715)" fill="#FDEB95"/>
<path d="M0.78125 1.55281C0.577539 1.55281 0.374609 1.46658 0.225781 1.32624C0.0853512 1.17781 0 0.974487 0 0.771557C0 0.568237 0.0854489 0.365308 0.225781 0.21687C0.514941 -0.07229 1.03828 -0.07229 1.32744 0.21687C1.47617 0.365308 1.5624 0.568237 1.5624 0.771557C1.5624 0.974487 1.47617 1.17781 1.32744 1.32624C1.18711 1.46658 0.98418 1.55281 0.78125 1.55281Z" transform="translate(11.4546 33.6035)" fill="#FFCD00"/>
<path d="M0.781249 1.55281C0.577538 1.55281 0.37461 1.46658 0.225879 1.32624C0.0778324 1.17781 0 0.974487 0 0.771557C0 0.568237 0.0778324 0.365308 0.225879 0.21687C0.523438 -0.07229 1.03838 -0.07229 1.32754 0.21687C1.47627 0.365308 1.5625 0.568237 1.5625 0.771557C1.5625 0.974487 1.47627 1.17781 1.32754 1.32624C1.18711 1.46658 0.984178 1.55281 0.781249 1.55281Z" transform="translate(23.9546 46.1035)" fill="#FFCD00"/>
<path d="M0.78125 1.54806C0.57832 1.54806 0.374609 1.46983 0.234179 1.32149C0.0854487 1.17276 0 0.969738 0 0.766808C0 0.563488 0.0854487 0.360556 0.234179 0.219736C0.523339 -0.0694243 1.04668 -0.0770415 1.33584 0.219736C1.48389 0.360458 1.5624 0.563488 1.5624 0.766808C1.5624 0.969738 1.48379 1.17267 1.33584 1.32149C1.19561 1.46993 0.991895 1.54806 0.78125 1.54806Z" transform="translate(15.1105 42.4441)" fill="#FFCD00"/>
<path d="M0.78125 1.55051C0.569922 1.55051 0.366993 1.47268 0.226563 1.32395C0.0778327 1.17551 0 0.972582 0 0.769262C0 0.566332 0.0778327 0.363013 0.226563 0.222583C0.515723 -0.0741943 1.03906 -0.0741943 1.32822 0.222583C1.47627 0.363013 1.5624 0.566332 1.5624 0.769262C1.5624 0.972582 1.47617 1.17551 1.32822 1.32395C1.18711 1.47268 0.98418 1.55051 0.78125 1.55051Z" transform="translate(12.4075 38.3867)" fill="#FFCD00"/>
<path d="M0.78125 1.55281C0.57832 1.55281 0.375391 1.47458 0.226563 1.32624C0.0861335 1.18581 0 0.982494 0 0.771557C0 0.568627 0.0862312 0.365308 0.226563 0.21687C0.523341 -0.07229 1.03906 -0.07229 1.33584 0.21687C1.47695 0.365308 1.5624 0.568627 1.5624 0.771557C1.5624 0.974877 1.47695 1.17781 1.33584 1.32624C1.18789 1.47458 0.984961 1.55281 0.78125 1.55281Z" transform="translate(28.7351 45.1501)" fill="#FFCD00"/>
<path d="M0.78125 1.55281C0.569922 1.55281 0.366993 1.46697 0.226563 1.31824C0.0778327 1.17781 0 0.974487 0 0.771557C0 0.560619 0.0778327 0.3573 0.226563 0.21687C0.515723 -0.07229 1.03906 -0.07229 1.32822 0.21687C1.47627 0.365308 1.5624 0.560619 1.5624 0.771557C1.5624 0.974487 1.47617 1.17781 1.32822 1.31824C1.18711 1.46697 0.98418 1.55281 0.78125 1.55281Z" transform="translate(12.4075 28.822)" fill="#FFCD00"/>
<path d="M0.78125 1.55091C0.57832 1.55091 0.37539 1.47268 0.23496 1.32434C0.0862295 1.1759 0 0.980593 0 0.769655C0 0.566726 0.0862295 0.363403 0.23496 0.222583C0.523339 -0.0741943 1.04746 -0.0741943 1.33584 0.222583C1.48457 0.363306 1.5624 0.566628 1.5624 0.769655C1.5624 0.980593 1.48457 1.1759 1.33584 1.32434C1.19551 1.47268 0.992578 1.55091 0.78125 1.55091Z" transform="translate(19.1648 45.1521)" fill="#FFCD00"/>
<path d="M0.78125 1.55281C0.57832 1.55281 0.375391 1.46658 0.226563 1.32625C0.0861335 1.17781 0 0.97449 0 0.77156C0 0.56824 0.0862312 0.365308 0.226563 0.21687C0.523341 -0.07229 1.03906 -0.07229 1.33584 0.21687C1.47695 0.365308 1.5624 0.56824 1.5624 0.77156C1.5624 0.97449 1.47695 1.17781 1.33584 1.32625C1.18789 1.46668 0.98418 1.55281 0.78125 1.55281Z" transform="translate(11.7041 36.0955)" fill="#FFCD00"/>
<path d="M0.78125 1.55281C0.570703 1.55281 0.366993 1.46697 0.226563 1.32625C0.0778327 1.17781 0 0.97488 0 0.77156C0 0.56863 0.0778327 0.365308 0.226563 0.21687C0.515723 -0.07229 1.03906 -0.07229 1.32822 0.21687C1.47627 0.365308 1.5624 0.56863 1.5624 0.77156C1.5624 0.97488 1.47617 1.17781 1.32822 1.32625C1.18799 1.46697 0.984277 1.55281 0.78125 1.55281Z" transform="translate(26.4463 45.8531)" fill="#FFCD00"/>
<path d="M0.78125 1.55281C0.570703 1.55281 0.367774 1.46697 0.226563 1.32625C0.0785163 1.17781 0 0.97449 0 0.77156C0 0.560622 0.078614 0.365308 0.226563 0.21687C0.515723 -0.07229 1.03906 -0.07229 1.32822 0.21687C1.47695 0.365308 1.5624 0.56824 1.5624 0.77156C1.5624 0.97449 1.47695 1.17781 1.32822 1.32625C1.18789 1.46697 0.984961 1.55281 0.78125 1.55281Z" transform="translate(13.532 26.7048)" fill="#FFCD00"/>
<path d="M0.78125 1.5509C0.569922 1.5509 0.366993 1.46506 0.226563 1.32434C0.0778327 1.1759 0 0.98059 0 0.769652C0 0.566332 0.0778327 0.363403 0.226563 0.222583C0.514942 -0.0741943 1.03906 -0.0741943 1.32744 0.222583C1.47617 0.363306 1.5624 0.566332 1.5624 0.769652C1.5624 0.98059 1.47617 1.1759 1.32744 1.32434C1.18721 1.46506 0.98418 1.5509 0.78125 1.5509Z" transform="translate(17.056 44.0271)" fill="#FFCD00"/>
<path d="M0.78125 1.55281C0.57832 1.55281 0.37539 1.46697 0.226562 1.31863C0.086132 1.17791 0 0.974877 0 0.771557C0 0.560619 0.0862297 0.365308 0.226562 0.21687C0.523339 -0.07229 1.04668 -0.07229 1.33584 0.21687C1.48457 0.365308 1.5624 0.560619 1.5624 0.771557C1.5624 0.974877 1.48457 1.17781 1.33584 1.31863C1.18789 1.46697 0.992578 1.55281 0.78125 1.55281Z" transform="translate(13.587 40.5955)" fill="#FFCD00"/>
<path d="M0.78125 1.54781C0.570703 1.54781 0.367771 1.46959 0.22656 1.32125C0.0785134 1.18082 0 0.9775 0 0.766562C0 0.563632 0.078611 0.360313 0.22656 0.219883C0.508103 -0.0692768 1.03906 -0.0772847 1.32822 0.219883C1.47695 0.360313 1.5624 0.563632 1.5624 0.766562C1.5624 0.9775 1.47695 1.18082 1.32822 1.32125C1.18789 1.46959 0.984961 1.54781 0.78125 1.54781Z" transform="translate(30.9462 43.9675)" fill="#FFCD00"/>
<path d="M0.78125 1.55281C0.57832 1.55281 0.375391 1.46697 0.226562 1.31863C0.0861328 1.17791 0 0.974877 0 0.771557C0 0.560619 0.0862304 0.365308 0.226562 0.21687C0.515723 -0.07229 1.04746 -0.07229 1.33662 0.21687C1.48467 0.365308 1.5625 0.560619 1.5625 0.771557C1.5625 0.974877 1.48467 1.17781 1.33662 1.31863C1.18789 1.46697 0.984961 1.55281 0.78125 1.55281Z" transform="translate(11.6804 31.2205)" fill="#FFCD00"/>
<path d="M0.773633 1.55281C0.570703 1.55281 0.367774 1.46658 0.226563 1.31824C0.0785163 1.17781 0 0.974487 0 0.771557C0 0.560619 0.078614 0.3573 0.226563 0.21687C0.515723 -0.07229 1.03906 -0.07229 1.32822 0.21687C1.47695 0.3573 1.55479 0.560619 1.55479 0.771557C1.55479 0.974487 1.47695 1.17781 1.32822 1.31824C1.18789 1.46658 0.984961 1.55281 0.773633 1.55281Z" transform="translate(21.5712 45.877)" fill="#FFCD00"/>
<path d="M0.233497 0C0.0853522 0.14043 0 0.343068 0 0.553517C0 0.756447 0.0854487 0.959766 0.234179 1.1002C0.374609 1.24863 0.578223 1.33477 0.78125 1.33477C0.991211 1.33477 1.18594 1.24883 1.33457 1.10108L0.233497 0Z" transform="translate(15.1105 24.9855)" fill="#FFCD00"/>
<path d="M0.78125 1.33057C0.983691 1.33057 1.18604 1.25254 1.33477 1.10469L0.230077 0C0.2291 0.000976562 0.227637 0.00126755 0.226563 0.00224411C0.0861335 0.142967 0 0.345996 0 0.549316C0 0.759863 0.0862312 0.963183 0.226563 1.104C0.37461 1.25244 0.57832 1.33057 0.78125 1.33057Z" transform="translate(32.7901 42.6616)" fill="#FFCD00"/>
</g>
</svg>
